# AST/ASF file generated using VICON BodyLanguage
# -----------------------------------------------
:version 1.10
:name VICON
:units
  mass 1.0
  length 0.45
  angle deg
:documentation
   .ast/.asf automatically generated from VICON data using
   VICON BodyBuilder and BodyLanguage model FoxedUp or BRILLIANT.MOD
:root
   order TX TY TZ RX RY RZ
   axis XYZ
   position 0 0 0  
   orientation 0 0 0 
:bonedata
  begin
     id 1 
     name lhipjoint
     direction 0.61886 -0.69539 0.365302 
     length 2.20474 
     axis 0 0 0  XYZ
  end
  begin
     id 2 
     name lfemur
     direction 0.34202 -0.939693 0  
     length 6.65149  
     axis 0 0 20  XYZ
    dof rx ry rz
    limits (-160.0 20.0)
           (-70.0 70.0)
           (-60.0 70.0)
  end
  begin
     id 3 
     name ltibia
     direction 0.34202 -0.939693 0   
     length 6.35814   
     axis 0 0 20   XYZ
    dof rx
    limits (-10.0 170.0)
  end
  begin
     id 4 
     name lfoot
     direction 0.101224 -0.278109 0.955201   
     length 2.18766   
     axis -90 7.62852e-016 20   XYZ
    dof rx rz
    limits (-45.0 90.0)
           (-70.0 20.0)
  end
  begin
     id 5 
     name ltoes
     direction 1.53524e-011 -4.21877e-011 1   
     length 1.09206   
     axis -90 7.62852e-016 20   XYZ
    dof rx
    limits (-90.0 20.0)
  end
  begin
     id 6 
     name rhipjoint
     direction -0.600207 -0.708087 0.371972   
     length 2.1652  
     axis 0 0 0  XYZ 
  end
  begin
     id 7 
     name rfemur
     direction -0.34202 -0.939693 0   
     length 6.54691   
     axis 0 0 -20   XYZ
    dof rx ry rz
    limits (-160.0 20.0)
           (-70.0 70.0)
           (-70.0 60.0)
  end
  begin
     id 8 
     name rtibia
     direction -0.34202 -0.939693 0   
     length 6.37474   
     axis 0 0 -20   XYZ
    dof rx
    limits (-10.0 170.0)
 end
 begin
     id 9 
     name rfoot
     direction -0.111266 -0.3057 0.945604   
     length 2.00903  
     axis -90 -7.62852e-016 -20   XYZ
    dof rx rz
    limits (-45.0 90.0)
           (-20.0 70.0)
  end
  begin
     id 10 
     name rtoes
     direction -1.5362e-011 -4.21913e-011 1   
     length 1.00221   
     axis -90 -7.62852e-016 -20   XYZ
    dof rx
    limits (-90.0 20.0)
  end
  begin
     id 11 
     name lowerback
     direction -0.0224561 0.999731 -0.00577314   
     length 2.10409   
     axis 0 0 0   XYZ
    dof rx ry rz
    limits (-20.0 45.0)
           (-30.0 30.0)
           (-30.0 30.0)
  end
  begin
     id 12 
     name upperback
     direction 0.0213126 0.999185 -0.0342817   
     length 2.09783   
     axis 0 0 0   XYZ
    dof rx ry rz
    limits (-20.0 45.0)
           (-30.0 30.0)
           (-30.0 30.0)
  end
  begin
     id 13 
     name thorax
     direction 0.0312356 0.999036 -0.0308451   
     length 2.09788   
     axis 0 0 0   XYZ
    dof rx ry rz
    limits (-20.0 45.0)
           (-30.0 30.0)
           (-30.0 30.0)
  end
  begin
     id 14 
     name lowerneck
     direction -0.0114419 0.996481 0.0830329   
     length 1.38575   
     axis 0 0 0   XYZ
    dof rx ry rz
    limits (-20.0 45.0)
           (-30.0 30.0)
           (-30.0 30.0)
  end
  begin
     id 15 
     name upperneck
     direction -0.0075675 0.996187 -0.0869092   
     length 1.39401   
     axis 0 0 0   XYZ
    dof rx ry rz
    limits (-20.0 45.0)
           (-30.0 30.0)
           (-30.0 30.0)
  end
  begin
     id 16
     name head
     direction -0.00222073 0.999264 -0.0382974  
     length 1.3964  
     axis 0 0 0   XYZ
    dof rx ry rz
    limits (-20.0 45.0)
           (-30.0 30.0)
           (-30.0 30.0)
  end
  begin
     id 17 
     name lclavicle
     direction 0.965962 0.222138 0.132556  
     length 2.81514  
     axis 0 0 0   XYZ
    dof ry rz
    limits (-20.0 10.0)
           (0.0 20.0)
  end
  begin
     id 18 
     name lhumerus
     direction 1 -4.48972e-011 7.03471e-018   
     length 4.47366   
     axis 180 -30 -90   XYZ
    dof rx ry rz
    limits (-60.0 90.0)
           (-90.0 90.0)
           (-90.0 90.0)
  end
  begin
     id 19
     name lradius
     direction 1 -4.48951e-011 -6.22192e-028   
     length 3.19948   
     axis 180 -30 -90   XYZ
    dof rx
    limits (-10.0 170.0)
  end
  begin
     id 20
     name lwrist
     direction 1 -4.48967e-011 -1.24264e-027   
     length 1.59974   
     axis 1.40095e-015 90 90   XYZ
    dof ry
    limits (-180.0 0.0)
 end
  begin
     id 21 
     name lhand
     direction 1 -4.4897e-011 -2.48528e-027   
     length 0.492667   
     axis 1.58582e-015 90 90   XYZ
    dof rx rz
    limits (-90.0 90.0)
           (-45.0 45.0)
  end
  begin
     id 22 
     name lfingers
     direction 1 -4.48996e-011 -4.97056e-027   
     length 0.397201   
     axis 3.17164e-015 90 90   XYZ
    dof rx
    limits (0.0 90.0)
  end
  begin
     id 23
     name lthumb
     direction 0.707107 -6.34981e-011 0.707107   
     length 0.570303   
     axis -90 45 2.85299e-015   XYZ
    dof rx rz
    limits (-45.0 45.0)
           (-45.0 45.0)
  end
  begin
     id 24 
     name rclavicle
     direction -0.961164 0.229034 0.153972   
     length 3.09348  
     axis 0 0 0   XYZ 
    dof ry rz
    limits (-10.0 20.0)
           (-20.0 0.0)
  end
  begin
     id 25 
     name rhumerus
     direction -1 -4.48971e-011 -9.06263e-028  
     length 4.3269   
     axis 180 30 90   XYZ
    dof rx ry rz
    limits (-90.0 60.0)
           (-90.0 90.0)
           (-90.0 90.0)
  end
  begin
     id 26 
     name rradius
     direction -1 -4.48953e-011 1.44659e-027   
     length 3.1896   
     axis 180 30 90   XYZ
    dof rx
    limits (-10.0 170.0)
  end
  begin
     id 27 
     name rwrist
     direction -1 -4.48988e-011 -1.24264e-027   
     length 1.5948   
     axis 1.40095e-015 -90 -90   XYZ
    dof ry
    limits (-180.0 0.0)
  end
  begin
     id 28
     name rhand
     direction -1 -4.49033e-011 -2.48528e-027   
     length 0.464496   
     axis 1.58582e-015 -90 -90   XYZ
    dof rx rz
    limits (-90.0 90.0)
           (-45.0 45.0)
  end
  begin
     id 29
     name rfingers
     direction -1 -4.48905e-011 -4.97056e-027   
     length 0.374489   
     axis 3.17164e-015 -90 -90   XYZ
    dof rx
    limits (0.0 90.0)
  end
  begin
     id 30
     name rthumb
     direction -0.707107 -6.34909e-011 0.707107   
     length 0.537693   
     axis -90 -45 -2.85299e-015   XYZ
    dof rx rz
    limits (-45.0 45.0)
           (-45.0 45.0)
  end
:hierarchy
  begin
    root lhipjoint rhipjoint lowerback
    lhipjoint lfemur
    lfemur ltibia
    ltibia lfoot
    lfoot ltoes
    rhipjoint rfemur
    rfemur rtibia
    rtibia rfoot
    rfoot rtoes
    lowerback upperback
    upperback thorax
    thorax lowerneck lclavicle rclavicle
    lowerneck upperneck
    upperneck head
    lclavicle lhumerus
    lhumerus lradius
    lradius lwrist
    lwrist lhand lthumb
    lhand lfingers
    rclavicle rhumerus
    rhumerus rradius
    rradius rwrist
    rwrist rhand rthumb
    rhand rfingers
  end

#!OML:ASF G:\acrobat\cartwheel_test 2\Patient 1\Session 2\acrobat4.ASF
:FULLY-SPECIFIED
:DEGREES
279
root 8.36953 22.9304 22.8711 169.466 0.159739 1.93979
lowerback 13.6902 3.95056 0.403789
upperback 3.54573 5.03671 0.741825
thorax -3.94482 2.36488 -0.28857
lowerneck -28.6217 -1.31936 -4.45649
upperneck 28.0214 -0.476579 1.80765
head 14.448 -0.448357 1.38527
rclavicle 6.83571e-014 1.78906e-015
rhumerus 41.276 -25.6812 -51.2854
rradius 85.267
rwrist -2.99773
rhand -38.3162 -264.131
rfingers 7.12502
rthumb -11.3442 125.542
lclavicle 6.83571e-014 1.78906e-015
lhumerus 53.6864 12.7405 63.4981
lradius 70.1479
lwrist 9.12434
lhand -59.2081 195.461
lfingers 7.12502
lthumb -31.3976 168.136
rfemur -19.6187 33.8031 -41.1701
rtibia -9.22361e-014
rfoot -63.1018 -65.5655
rtoes 43.2198
lfemur -45.8051 64.3441 -2.48254
ltibia 2.54444e-014
lfoot 201.446 -183.901
ltoes 37.7769
280
root 8.38439 22.936 22.8971 169.974 -1.9392 2.78191
lowerback 13.5683 3.29883 0.993329
upperback 3.20039 4.33595 1.17797
thorax -4.23346 2.03484 -0.052548
lowerneck -28.1603 -1.35797 -4.71972
upperneck 27.9055 -0.375662 1.64285
head 14.3011 -0.46126 1.37906
rclavicle 1.83255e-014 -5.66536e-015
rhumerus 41.4387 -25.9742 -51.145
rradius 85.3147
rwrist -2.77151
rhand -38.3681 -264.43
rfingers 7.12502
rthumb -11.3943 125.241
lclavicle 1.83255e-014 -5.66536e-015
lhumerus 52.7965 12.2293 63.3152
lradius 70.6786
lwrist 9.6831
lhand -59.3223 195.567
lfingers 7.12502
lthumb -31.5065 168.263
rfemur -20.9078 31.8116 -42.66
rtibia -3.4191e-014
rfoot -57.9178 -64.6548
rtoes 43.7585
lfemur -43.5452 66.2157 -2.41381
ltibia 3.18055e-014
lfoot 202.226 -184.673
ltoes 37.9324
281
root 8.39777 22.9502 22.9183 170.505 -3.93744 3.52252
lowerback 13.3695 2.69669 1.42838
upperback 2.88711 3.67375 1.64008
thorax -4.46 1.72264 0.296727
lowerneck -27.9531 -1.38081 -4.95314
upperneck 27.8403 -0.221303 1.39171
head 14.2267 -0.460264 1.34467
rclavicle -1.99817e-014 -2.98177e-015
rhumerus 41.665 -26.2675 -50.8294
rradius 85.3241
rwrist -2.73315
rhand -38.4306 -264.648
rfingers 7.12502
rthumb -11.4546 125.019
lclavicle -1.99817e-014 -2.98177e-015
lhumerus 51.8134 11.7766 62.8138
lradius 71.1909
lwrist 10.4309
lhand -59.5672 194.343
lfingers 7.12502
lthumb -31.7397 167.085
rfemur -24.4545 30.5436 -44.5767
rtibia 3.66046
rfoot -58.8096 -60.3023
rtoes 43.3759
lfemur -40.8139 68.1271 -1.95356
ltibia -4.45278e-014
lfoot 203.754 -185.51
ltoes 38.4986
282
root 8.41037 22.9577 22.9454 170.972 -5.87839 4.1542
lowerback 13.1623 2.17336 1.76771
upperback 2.68263 3.08628 2.04927
thorax -4.56741 1.44503 0.635246
lowerneck -28.151 -1.40726 -4.99575
upperneck 27.8756 -0.100952 1.03833
head 14.28 -0.469838 1.2314
rclavicle -5.15629e-014 -6.65929e-015
rhumerus 41.8778 -26.8015 -50.4518
rradius 85.3618
rwrist -2.81765
rhand -38.4941 -264.992
rfingers 7.12502
rthumb -11.5158 124.672
lclavicle -5.15629e-014 -6.65929e-015
lhumerus 50.8369 11.3042 61.9374
lradius 71.7857
lwrist 11.3129
lhand -59.9084 192.496
lfingers 7.12502
lthumb -32.0647 165.303
rfemur -29.6129 29.8731 -46.6597
rtibia 9.41404
rfoot -53.7544 -61.4089
rtoes 39.6246
lfemur -37.2311 69.8756 -0.844328
ltibia 1.27222e-014
lfoot 205.533 -186.902
ltoes 38.172
283
root 8.42544 22.9715 22.9696 171.354 -8.0358 4.79011
lowerback 12.8255 1.60586 2.21828
upperback 2.54826 2.44316 2.40494
thorax -4.51966 1.13934 0.86805
lowerneck -28.3514 -1.47866 -5.01711
upperneck 27.9156 -0.0945074 0.785738
head 14.3399 -0.511582 1.13242
rclavicle 3.6303e-014 3.77691e-015
rhumerus 42.0995 -27.4778 -50.1398
rradius 85.3627
rwrist -2.82068
rhand -38.5561 -265.605
rfingers 7.12502
rthumb -11.5756 124.055
lclavicle 3.6303e-014 3.77691e-015
lhumerus 49.723 10.7135 60.6874
lradius 72.6559
lwrist 12.531
lhand -60.1498 191.465
lfingers 7.12502
lthumb -32.2944 164.318
rfemur -33.1132 28.8523 -48.204
rtibia 12.7749
rfoot -50.8013 -61.1505
rtoes 38.9656
lfemur -33.0106 71.167 0.849282
ltibia -2.22639e-014
lfoot 207.234 -188.605
ltoes 32.7379
